<svg width="75" height="75" viewBox="0 0 75 75" fill="none" xmlns="http://www.w3.org/2000/svg">
<rect width="75" height="75" rx="37.5" fill="white"/>
<path d="M47.5084 51.8957C47.5084 52.189 47.2817 52.509 46.8284 52.8557C46.4017 53.2023 45.8417 53.509 45.1484 53.7757V53.8557C45.1217 53.8557 45.1084 53.8423 45.1084 53.8157C45.0817 53.9223 45.0284 54.069 44.9484 54.2557C44.8684 54.469 44.7751 54.6557 44.6684 54.8157C44.5884 55.0023 44.4951 55.1223 44.3884 55.1757C44.2817 55.2557 44.1884 55.2157 44.1084 55.0557C44.0017 54.8423 43.9484 54.549 43.9484 54.1757C43.6284 54.2557 43.3217 54.3223 43.0284 54.3757C42.7617 54.429 42.5084 54.4557 42.2684 54.4557C42.2151 54.509 42.1751 54.5623 42.1484 54.6157C42.1484 54.669 42.1351 54.7223 42.1084 54.7757V54.7357C42.1084 54.7357 42.1084 54.749 42.1084 54.7757C42.0817 54.8557 42.0417 54.9757 41.9884 55.1357C41.9351 55.3223 41.8684 55.3757 41.7884 55.2957C41.7084 55.429 41.6417 55.509 41.5884 55.5357C41.5351 55.5623 41.4684 55.509 41.3884 55.3757C41.3351 55.4823 41.2684 55.5623 41.1884 55.6157C41.1084 55.669 41.0417 55.6423 40.9884 55.5357C40.8551 55.3757 40.7884 55.1757 40.7884 54.9357C40.7884 54.7223 40.8151 54.509 40.8684 54.2957L41.0684 54.4957C41.0417 54.389 41.0151 54.3223 40.9884 54.2957C40.9884 54.2957 40.9617 54.269 40.9084 54.2157L40.9484 54.0957C40.8951 54.0423 40.8684 53.9357 40.8684 53.7757V53.7357C40.8417 53.7357 40.8284 53.709 40.8284 53.6557C40.8551 53.6823 40.8684 53.6957 40.8684 53.6957C40.8417 53.669 40.8284 53.6557 40.8284 53.6557L40.8684 53.5357C40.8684 53.269 40.8684 53.0157 40.8684 52.7757C40.8684 52.5357 40.8551 52.2957 40.8284 52.0557C40.8017 52.0557 40.7751 52.0557 40.7484 52.0557C40.7217 52.0823 40.6951 52.0957 40.6684 52.0957C40.6151 52.1223 40.5217 52.1623 40.3884 52.2157C40.2551 52.269 40.1217 52.2957 39.9884 52.2957C39.8817 52.2957 39.7884 52.2557 39.7084 52.1757C39.6284 52.0957 39.6284 51.949 39.7084 51.7357C39.7351 51.6557 39.8017 51.5357 39.9084 51.3757C40.0151 51.1623 40.0951 50.9623 40.1484 50.7757C40.2017 50.6157 40.2551 50.4157 40.3084 50.1757C40.3084 50.1223 40.3084 50.069 40.3084 50.0157C40.3351 49.9357 40.3484 49.869 40.3484 49.8157C40.2417 49.5223 40.1217 49.2423 39.9884 48.9757C39.8551 48.709 39.7217 48.4423 39.5884 48.1757C38.9751 47.0823 38.2684 46.1757 37.4684 45.4557C36.6684 44.7357 35.9617 44.189 35.3484 43.8157C34.9751 43.6023 34.9484 43.2823 35.2684 42.8557C35.6151 42.4023 36.2151 41.989 37.0684 41.6157C37.4951 41.429 37.9217 41.269 38.3484 41.1357C38.8017 41.0023 39.2284 40.909 39.6284 40.8557C40.0284 40.8023 40.3884 40.789 40.7084 40.8157C41.0284 40.8423 41.2817 40.909 41.4684 41.0157C41.9217 41.2823 42.4551 41.6557 43.0684 42.1357C43.3617 41.9757 43.6417 41.909 43.9084 41.9357C44.1751 41.9357 44.4284 42.0023 44.6684 42.1357C44.6951 41.8157 44.6551 41.4557 44.5484 41.0557C44.4684 40.7357 44.3084 40.3357 44.0684 39.8557C43.8284 39.349 43.5617 38.8157 43.2684 38.2557C43.2151 38.1223 43.1484 37.989 43.0684 37.8557C42.9884 37.6957 42.9084 37.549 42.8284 37.4157C42.7484 37.4957 42.6817 37.4823 42.6284 37.3757C42.5751 37.2957 42.6151 37.2557 42.7484 37.2557C42.5351 36.8557 42.3351 36.4557 42.1484 36.0557C41.9884 35.6557 41.8017 35.229 41.5884 34.7757C41.1084 33.6557 40.8017 32.589 40.6684 31.5757C40.5351 30.5357 40.5617 29.5623 40.7484 28.6557C40.8817 27.8557 41.1351 27.0957 41.5084 26.3757C41.8817 25.629 42.3351 24.9357 42.8684 24.2957C43.4017 23.6823 44.0151 23.1357 44.7084 22.6557C45.4017 22.149 46.1484 21.7223 46.9484 21.3757C48.0684 20.8957 49.2551 20.589 50.5084 20.4557C51.7884 20.2957 53.1084 20.349 54.4684 20.6157C54.9484 20.6957 55.4684 21.0023 56.0284 21.5357C56.5351 21.2157 57.0817 20.9223 57.6684 20.6557C58.2551 20.389 58.8951 20.1757 59.5884 20.0157C59.9617 19.9357 60.4417 20.1623 61.0284 20.6957C61.6151 21.2023 62.1751 21.8557 62.7084 22.6557C63.2151 23.4557 63.5217 24.1757 63.6284 24.8157C63.7617 25.4557 63.6417 25.8157 63.2684 25.8957C62.3351 26.109 61.4951 26.4157 60.7484 26.8157C60.0284 27.2157 59.3751 27.6823 58.7884 28.2157C58.9751 28.2423 59.0684 28.2957 59.0684 28.3757C59.0951 28.4557 58.9351 28.629 58.5884 28.8957L58.1084 29.1357C58.0017 29.4557 57.8551 29.6823 57.6684 29.8157C57.5084 29.9223 57.2951 30.0423 57.0284 30.1757C56.5751 30.869 56.2017 31.549 55.9084 32.2157C55.6151 32.8823 55.4017 33.4823 55.2684 34.0157C55.1617 34.4157 54.8551 34.5223 54.3484 34.3357C53.8417 34.1223 53.2817 33.669 52.6684 32.9757C52.2951 32.549 51.9751 32.109 51.7084 31.6557C51.5217 31.5223 51.2951 31.349 51.0284 31.1357C50.7617 30.9223 50.6017 30.8157 50.5484 30.8157C50.4417 30.8157 50.3884 30.8423 50.3884 30.8957C50.3884 30.949 50.3484 30.989 50.2684 31.0157C50.2151 31.0423 50.1617 31.0823 50.1084 31.1357V31.2157C50.1084 31.2423 50.0151 31.229 49.8284 31.1757C49.6684 31.1223 49.5751 31.1223 49.5484 31.1757C49.4951 31.229 49.4417 31.2557 49.3884 31.2557C49.3884 31.2823 49.3751 31.2957 49.3484 31.2957C49.3484 31.2957 49.3484 31.309 49.3484 31.3357C49.3484 31.2823 49.3351 31.2423 49.3084 31.2157C49.3084 31.189 49.3084 31.149 49.3084 31.0957V31.1757V31.3757C49.2817 31.4023 49.2417 31.4157 49.1884 31.4157C49.1351 31.4157 49.1351 31.4423 49.1884 31.4957H49.1084C49.0817 31.4957 49.0551 31.509 49.0284 31.5357C49.0284 31.5623 49.0151 31.5757 48.9884 31.5757C48.8817 31.5223 48.8417 31.4957 48.8684 31.4957C48.8951 31.4957 48.8817 31.5223 48.8284 31.5757C48.8284 31.6023 48.8284 31.6157 48.8284 31.6157C48.8551 31.6423 48.8817 31.6823 48.9084 31.7357C48.9351 31.7623 48.9351 31.7757 48.9084 31.7757H48.8684C48.8951 31.8557 48.8417 31.9223 48.7084 31.9757C48.6017 32.0023 48.5484 32.029 48.5484 32.0557C48.5484 32.0823 48.5351 32.109 48.5084 32.1357C48.4551 32.0823 48.4284 32.0557 48.4284 32.0557C48.4284 32.0823 48.4417 32.0957 48.4684 32.0957C48.4951 32.149 48.5084 32.1757 48.5084 32.1757H48.5884C48.5617 32.229 48.5484 32.2557 48.5484 32.2557L48.5084 32.2157C48.5084 32.2957 48.4951 32.349 48.4684 32.3757C48.4417 32.349 48.4284 32.3223 48.4284 32.2957C48.3751 32.3757 48.3484 32.429 48.3484 32.4557C48.3484 32.4823 48.2684 32.469 48.1084 32.4157C48.0551 32.3623 47.9884 32.3357 47.9084 32.3357C47.8284 32.3623 47.7351 32.389 47.6284 32.4157C47.5484 32.4157 47.5084 32.469 47.5084 32.5757C47.5084 32.6023 47.4951 32.629 47.4684 32.6557C47.4151 32.709 47.3751 32.7357 47.3484 32.7357H47.3084C47.2551 32.7623 47.1884 32.7623 47.1084 32.7357C47.0284 32.709 46.9484 32.6957 46.8684 32.6957C46.8151 32.669 46.7751 32.6557 46.7484 32.6557C46.7484 32.6557 46.7217 32.6423 46.6684 32.6157H46.5884C46.5884 32.6957 46.5751 32.7357 46.5484 32.7357C46.5484 32.789 46.5617 32.8157 46.5884 32.8157C46.5884 32.8957 46.5751 32.9223 46.5484 32.8957L46.5884 32.9757C46.5617 33.0023 46.5751 33.029 46.6284 33.0557V33.1357H46.5884C46.5884 33.1623 46.6017 33.1757 46.6284 33.1757V33.3757C46.5751 33.429 46.5217 33.429 46.4684 33.3757C46.4684 33.3223 46.4551 33.2823 46.4284 33.2557C46.3751 33.2823 46.3751 33.3223 46.4284 33.3757C46.4017 33.3757 46.3884 33.3623 46.3884 33.3357L46.3484 33.2957C46.3484 33.3223 46.3217 33.3623 46.2684 33.4157C46.2417 33.4423 46.2417 33.469 46.2684 33.4957C46.2951 33.5223 46.3084 33.549 46.3084 33.5757V33.6957C46.3084 33.7223 46.2951 33.749 46.2684 33.7757C46.2684 33.7757 46.2551 33.749 46.2284 33.6957L46.1484 33.6157C46.0951 33.5623 46.0417 33.5357 45.9884 33.5357C45.9617 33.6157 45.9351 33.709 45.9084 33.8157C45.9084 33.8957 45.8951 33.9757 45.8684 34.0557C45.8684 34.0823 45.8684 34.0957 45.8684 34.0957C45.8951 34.0957 45.9084 34.109 45.9084 34.1357C45.9084 34.109 45.8951 34.0957 45.8684 34.0957C45.8684 34.0957 45.8684 34.0823 45.8684 34.0557C45.8417 34.109 45.8284 34.1623 45.8284 34.2157C45.8284 34.2423 45.8151 34.2823 45.7884 34.3357C45.7084 34.8157 45.6684 35.269 45.6684 35.6957C45.6951 36.0957 45.7751 36.4423 45.9084 36.7357C46.0684 37.109 46.2417 37.509 46.4284 37.9357C46.6417 38.3357 46.8551 38.749 47.0684 39.1757C47.5484 40.0823 47.9884 40.9757 48.3884 41.8557C48.8151 42.7357 49.1617 43.6423 49.4284 44.5757C49.7751 45.8557 49.8417 47.029 49.6284 48.0957C49.4151 49.1357 48.7217 50.0423 47.5484 50.8157C47.5484 51.0023 47.5484 51.1757 47.5484 51.3357C47.5484 51.5223 47.5351 51.709 47.5084 51.8957ZM46.0684 33.4157C46.0417 33.4423 46.0284 33.4557 46.0284 33.4557L46.1484 33.5357V33.4157H46.0684ZM47.4684 32.7757H47.4284C47.4817 32.7223 47.5084 32.669 47.5084 32.6157C47.5084 32.6423 47.4951 32.669 47.4684 32.6957C47.4684 32.7223 47.4684 32.749 47.4684 32.7757ZM47.3484 32.7757V32.7357V32.7757ZM42.5884 37.8157C42.5351 37.7623 42.5751 37.7357 42.7084 37.7357C42.7351 37.8157 42.7484 37.869 42.7484 37.8957C42.7751 37.8957 42.7617 37.8423 42.7084 37.7357H42.8284C42.8017 37.7623 42.7884 37.789 42.7884 37.8157C42.7884 37.8157 42.7751 37.829 42.7484 37.8557H42.6684C42.6151 37.8557 42.5884 37.8423 42.5884 37.8157Z" fill="#CF1919"/>
<path d="M24.4615 51.8957C24.4615 52.189 24.2349 52.509 23.7815 52.8557C23.3549 53.2023 22.7949 53.509 22.1015 53.7757V53.8557C22.0749 53.8557 22.0615 53.8423 22.0615 53.8157C22.0349 53.9223 21.9815 54.069 21.9015 54.2557C21.8215 54.469 21.7282 54.6557 21.6215 54.8157C21.5415 55.0023 21.4482 55.1223 21.3415 55.1757C21.2349 55.2557 21.1415 55.2157 21.0615 55.0557C20.9549 54.8423 20.9015 54.549 20.9015 54.1757C20.5815 54.2557 20.2749 54.3223 19.9815 54.3757C19.7149 54.429 19.4615 54.4557 19.2215 54.4557C19.1682 54.509 19.1282 54.5623 19.1015 54.6157C19.1015 54.669 19.0882 54.7223 19.0615 54.7757V54.7357C19.0615 54.7357 19.0615 54.749 19.0615 54.7757C19.0349 54.8557 18.9949 54.9757 18.9415 55.1357C18.8882 55.3223 18.8215 55.3757 18.7415 55.2957C18.6615 55.429 18.5949 55.509 18.5415 55.5357C18.4882 55.5623 18.4215 55.509 18.3415 55.3757C18.2882 55.4823 18.2215 55.5623 18.1415 55.6157C18.0615 55.669 17.9949 55.6423 17.9415 55.5357C17.8082 55.3757 17.7415 55.1757 17.7415 54.9357C17.7415 54.7223 17.7682 54.509 17.8215 54.2957L18.0215 54.4957C17.9949 54.389 17.9682 54.3223 17.9415 54.2957C17.9415 54.2957 17.9149 54.269 17.8615 54.2157L17.9015 54.0957C17.8482 54.0423 17.8215 53.9357 17.8215 53.7757V53.7357C17.7949 53.7357 17.7815 53.709 17.7815 53.6557C17.8082 53.6823 17.8215 53.6957 17.8215 53.6957C17.7949 53.669 17.7815 53.6557 17.7815 53.6557L17.8215 53.5357C17.8215 53.269 17.8215 53.0157 17.8215 52.7757C17.8215 52.5357 17.8082 52.2957 17.7815 52.0557C17.7549 52.0557 17.7282 52.0557 17.7015 52.0557C17.6749 52.0823 17.6482 52.0957 17.6215 52.0957C17.5682 52.1223 17.4749 52.1623 17.3415 52.2157C17.2082 52.269 17.0749 52.2957 16.9415 52.2957C16.8349 52.2957 16.7415 52.2557 16.6615 52.1757C16.5815 52.0957 16.5815 51.949 16.6615 51.7357C16.6882 51.6557 16.7549 51.5357 16.8615 51.3757C16.9682 51.1623 17.0482 50.9623 17.1015 50.7757C17.1549 50.6157 17.2082 50.4157 17.2615 50.1757C17.2615 50.1223 17.2615 50.069 17.2615 50.0157C17.2882 49.9357 17.3015 49.869 17.3015 49.8157C17.1949 49.5223 17.0749 49.2423 16.9415 48.9757C16.8082 48.709 16.6749 48.4423 16.5415 48.1757C15.9282 47.0823 15.2215 46.1757 14.4215 45.4557C13.6215 44.7357 12.9149 44.189 12.3015 43.8157C11.9282 43.6023 11.9015 43.2823 12.2215 42.8557C12.5682 42.4023 13.1682 41.989 14.0215 41.6157C14.4482 41.429 14.8749 41.269 15.3015 41.1357C15.7549 41.0023 16.1815 40.909 16.5815 40.8557C16.9815 40.8023 17.3415 40.789 17.6615 40.8157C17.9815 40.8423 18.2349 40.909 18.4215 41.0157C18.8749 41.2823 19.4082 41.6557 20.0215 42.1357C20.3149 41.9757 20.5949 41.909 20.8615 41.9357C21.1282 41.9357 21.3815 42.0023 21.6215 42.1357C21.6482 41.8157 21.6082 41.4557 21.5015 41.0557C21.4215 40.7357 21.2615 40.3357 21.0215 39.8557C20.7815 39.349 20.5149 38.8157 20.2215 38.2557C20.1682 38.1223 20.1015 37.989 20.0215 37.8557C19.9415 37.6957 19.8615 37.549 19.7815 37.4157C19.7015 37.4957 19.6349 37.4823 19.5815 37.3757C19.5282 37.2957 19.5682 37.2557 19.7015 37.2557C19.4882 36.8557 19.2882 36.4557 19.1015 36.0557C18.9415 35.6557 18.7549 35.229 18.5415 34.7757C18.0615 33.6557 17.7549 32.589 17.6215 31.5757C17.4882 30.5357 17.5149 29.5623 17.7015 28.6557C17.8349 27.8557 18.0882 27.0957 18.4615 26.3757C18.8349 25.629 19.2882 24.9357 19.8215 24.2957C20.3549 23.6823 20.9682 23.1357 21.6615 22.6557C22.3549 22.149 23.1015 21.7223 23.9015 21.3757C25.0215 20.8957 26.2082 20.589 27.4615 20.4557C28.7415 20.2957 30.0615 20.349 31.4215 20.6157C31.9015 20.6957 32.4215 21.0023 32.9815 21.5357C33.4882 21.2157 34.0349 20.9223 34.6215 20.6557C35.2082 20.389 35.8482 20.1757 36.5415 20.0157C36.9149 19.9357 37.3949 20.1623 37.9815 20.6957C38.5682 21.2023 39.1282 21.8557 39.6615 22.6557C40.1682 23.4557 40.4749 24.1757 40.5815 24.8157C40.7149 25.4557 40.5949 25.8157 40.2215 25.8957C39.2882 26.109 38.4482 26.4157 37.7015 26.8157C36.9815 27.2157 36.3282 27.6823 35.7415 28.2157C35.9282 28.2423 36.0215 28.2957 36.0215 28.3757C36.0482 28.4557 35.8882 28.629 35.5415 28.8957L35.0615 29.1357C34.9549 29.4557 34.8082 29.6823 34.6215 29.8157C34.4615 29.9223 34.2482 30.0423 33.9815 30.1757C33.5282 30.869 33.1549 31.549 32.8615 32.2157C32.5682 32.8823 32.3549 33.4823 32.2215 34.0157C32.1149 34.4157 31.8082 34.5223 31.3015 34.3357C30.7949 34.1223 30.2349 33.669 29.6215 32.9757C29.2482 32.549 28.9282 32.109 28.6615 31.6557C28.4749 31.5223 28.2482 31.349 27.9815 31.1357C27.7149 30.9223 27.5549 30.8157 27.5015 30.8157C27.3949 30.8157 27.3415 30.8423 27.3415 30.8957C27.3415 30.949 27.3015 30.989 27.2215 31.0157C27.1682 31.0423 27.1149 31.0823 27.0615 31.1357V31.2157C27.0615 31.2423 26.9682 31.229 26.7815 31.1757C26.6215 31.1223 26.5282 31.1223 26.5015 31.1757C26.4482 31.229 26.3949 31.2557 26.3415 31.2557C26.3415 31.2823 26.3282 31.2957 26.3015 31.2957C26.3015 31.2957 26.3015 31.309 26.3015 31.3357C26.3015 31.2823 26.2882 31.2423 26.2615 31.2157C26.2615 31.189 26.2615 31.149 26.2615 31.0957V31.1757V31.3757C26.2349 31.4023 26.1949 31.4157 26.1415 31.4157C26.0882 31.4157 26.0882 31.4423 26.1415 31.4957H26.0615C26.0349 31.4957 26.0082 31.509 25.9815 31.5357C25.9815 31.5623 25.9682 31.5757 25.9415 31.5757C25.8349 31.5223 25.7949 31.4957 25.8215 31.4957C25.8482 31.4957 25.8349 31.5223 25.7815 31.5757C25.7815 31.6023 25.7815 31.6157 25.7815 31.6157C25.8082 31.6423 25.8349 31.6823 25.8615 31.7357C25.8882 31.7623 25.8882 31.7757 25.8615 31.7757H25.8215C25.8482 31.8557 25.7949 31.9223 25.6615 31.9757C25.5549 32.0023 25.5015 32.029 25.5015 32.0557C25.5015 32.0823 25.4882 32.109 25.4615 32.1357C25.4082 32.0823 25.3815 32.0557 25.3815 32.0557C25.3815 32.0823 25.3949 32.0957 25.4215 32.0957C25.4482 32.149 25.4615 32.1757 25.4615 32.1757H25.5415C25.5149 32.229 25.5015 32.2557 25.5015 32.2557L25.4615 32.2157C25.4615 32.2957 25.4482 32.349 25.4215 32.3757C25.3949 32.349 25.3815 32.3223 25.3815 32.2957C25.3282 32.3757 25.3015 32.429 25.3015 32.4557C25.3015 32.4823 25.2215 32.469 25.0615 32.4157C25.0082 32.3623 24.9415 32.3357 24.8615 32.3357C24.7815 32.3623 24.6882 32.389 24.5815 32.4157C24.5015 32.4157 24.4615 32.469 24.4615 32.5757C24.4615 32.6023 24.4482 32.629 24.4215 32.6557C24.3682 32.709 24.3282 32.7357 24.3015 32.7357H24.2615C24.2082 32.7623 24.1415 32.7623 24.0615 32.7357C23.9815 32.709 23.9015 32.6957 23.8215 32.6957C23.7682 32.669 23.7282 32.6557 23.7015 32.6557C23.7015 32.6557 23.6749 32.6423 23.6215 32.6157H23.5415C23.5415 32.6957 23.5282 32.7357 23.5015 32.7357C23.5015 32.789 23.5149 32.8157 23.5415 32.8157C23.5415 32.8957 23.5282 32.9223 23.5015 32.8957L23.5415 32.9757C23.5149 33.0023 23.5282 33.029 23.5815 33.0557V33.1357H23.5415C23.5415 33.1623 23.5549 33.1757 23.5815 33.1757V33.3757C23.5282 33.429 23.4749 33.429 23.4215 33.3757C23.4215 33.3223 23.4082 33.2823 23.3815 33.2557C23.3282 33.2823 23.3282 33.3223 23.3815 33.3757C23.3549 33.3757 23.3415 33.3623 23.3415 33.3357L23.3015 33.2957C23.3015 33.3223 23.2749 33.3623 23.2215 33.4157C23.1949 33.4423 23.1949 33.469 23.2215 33.4957C23.2482 33.5223 23.2615 33.549 23.2615 33.5757V33.6957C23.2615 33.7223 23.2482 33.749 23.2215 33.7757C23.2215 33.7757 23.2082 33.749 23.1815 33.6957L23.1015 33.6157C23.0482 33.5623 22.9949 33.5357 22.9415 33.5357C22.9149 33.6157 22.8882 33.709 22.8615 33.8157C22.8615 33.8957 22.8482 33.9757 22.8215 34.0557C22.8215 34.0823 22.8215 34.0957 22.8215 34.0957C22.8482 34.0957 22.8615 34.109 22.8615 34.1357C22.8615 34.109 22.8482 34.0957 22.8215 34.0957C22.8215 34.0957 22.8215 34.0823 22.8215 34.0557C22.7949 34.109 22.7815 34.1623 22.7815 34.2157C22.7815 34.2423 22.7682 34.2823 22.7415 34.3357C22.6615 34.8157 22.6215 35.269 22.6215 35.6957C22.6482 36.0957 22.7282 36.4423 22.8615 36.7357C23.0215 37.109 23.1949 37.509 23.3815 37.9357C23.5949 38.3357 23.8082 38.749 24.0215 39.1757C24.5015 40.0823 24.9415 40.9757 25.3415 41.8557C25.7682 42.7357 26.1149 43.6423 26.3815 44.5757C26.7282 45.8557 26.7949 47.029 26.5815 48.0957C26.3682 49.1357 25.6749 50.0423 24.5015 50.8157C24.5015 51.0023 24.5015 51.1757 24.5015 51.3357C24.5015 51.5223 24.4882 51.709 24.4615 51.8957ZM23.0215 33.4157C22.9949 33.4423 22.9815 33.4557 22.9815 33.4557L23.1015 33.5357V33.4157H23.0215ZM24.4215 32.7757H24.3815C24.4349 32.7223 24.4615 32.669 24.4615 32.6157C24.4615 32.6423 24.4482 32.669 24.4215 32.6957C24.4215 32.7223 24.4215 32.749 24.4215 32.7757ZM24.3015 32.7757V32.7357V32.7757ZM19.5415 37.8157C19.4882 37.7623 19.5282 37.7357 19.6615 37.7357C19.6882 37.8157 19.7015 37.869 19.7015 37.8957C19.7282 37.8957 19.7149 37.8423 19.6615 37.7357H19.7815C19.7549 37.7623 19.7415 37.789 19.7415 37.8157C19.7415 37.8157 19.7282 37.829 19.7015 37.8557H19.6215C19.5682 37.8557 19.5415 37.8423 19.5415 37.8157Z" fill="#CF1919"/>
</svg>
