<svg width="654" height="654" viewBox="0 0 654 654" fill="none" xmlns="http://www.w3.org/2000/svg">
<circle cx="327" cy="327" r="327" fill="#CF1919"/>
<path d="M176.993 373.034C176.993 373.034 172.141 389.563 165.696 397.245C165.696 397.245 154.495 398.743 135.849 406.758C117.18 414.749 119.843 437.414 118.963 448.972C118.084 460.53 117.632 484.955 107.857 506.288C98.0824 527.621 101.626 536.492 101.626 536.492C101.626 536.492 178.491 554.709 237.139 530.713L238.471 524.933L262.467 523.602L265.131 532.496C265.131 532.496 379.216 542.271 441.027 530.689C441.027 530.689 473.87 532.615 481.6 512.828C481.6 512.828 505.739 511.853 511.542 520.557C517.345 529.262 518.058 531.236 531.519 531.688L536.989 531.236C536.989 531.236 540.866 531.926 543.387 530.998C543.387 530.998 545.67 531.45 547.953 530.094C547.953 530.094 551.14 530.784 552.067 528.501C552.971 526.218 549.784 520.962 549.784 520.962C549.784 520.962 530.592 509.308 524.884 501.103C519.176 492.875 502.743 493.35 491.303 491.043L487.427 486.025C487.427 486.025 430.991 455.393 403.189 457.129C403.189 457.129 400.573 450.185 385.804 451.469C371.035 452.777 360.594 437.556 346.681 434.084C332.769 430.612 328.868 428.876 327.132 428.424C325.396 427.972 323.66 413.655 316.264 413.655C308.867 413.655 296.714 410.611 296.714 410.611L291.054 395.39C291.054 395.39 219.825 361.214 176.945 373.034H176.993Z" fill="black"/>
<path d="M269.221 404.666C270.196 403.358 292.386 369.348 310.27 367.042C328.155 364.735 331.746 365.829 344.826 377.863C357.906 389.897 376.124 399.005 380.619 400.599C385.114 402.192 412.702 424.5 412.702 424.5L429.92 417.151C429.92 417.151 434.272 416.676 434.058 424.405C433.844 432.134 434.082 433.799 436.96 432.277C439.837 430.779 440.17 426.189 440.575 423.073C440.979 419.934 442.002 409.707 442.002 409.707C442.002 409.707 448.637 418.127 452.157 417.77C455.653 417.437 455.177 411.634 455.177 411.634C455.177 411.634 463.691 419.601 464.31 410.516C464.31 410.516 468.115 411.967 470.184 410.255C472.253 408.542 469.423 403.714 469.423 403.714C469.423 403.714 472.443 404.594 473.728 402.382C475.012 400.194 459.981 390.253 454.559 385.116C454.559 385.116 442.073 374.034 433.868 368.183C425.663 362.333 399.788 345.495 386.564 339.43C373.341 333.366 367.229 328.157 367.229 328.157C367.229 328.157 341.996 297.763 323.374 286.181C304.753 274.599 279.163 262.375 279.163 262.375C279.163 262.375 225.937 233.836 219.302 231.338C212.643 228.841 206.768 223.229 206.768 223.229C206.768 223.229 202.606 212.931 195.757 211.86L197.517 206.034C197.517 206.034 216.828 198.614 218.636 181.966C218.636 181.966 241.229 173.238 253.192 170.122C265.155 167.03 278.306 170.122 281.374 167.815C284.442 165.508 282.706 165.913 282.706 165.913C282.706 165.913 290.198 152.142 289.508 148.242C288.818 144.318 282.207 143.676 282.207 143.676C282.207 143.676 281.779 138.991 278.021 138.705C274.263 138.42 273.122 139.133 273.122 139.133C273.122 139.133 274.168 136.089 271.98 135.518C269.792 134.971 265.963 136.327 265.963 136.327C265.963 136.327 266.558 133.021 263.894 133.449C261.207 133.877 255.095 138.896 252.407 141.868C249.72 144.841 248.626 149.003 248.626 149.003C248.626 149.003 235.117 153.712 218.683 153.879C202.25 154.069 190.525 154.735 190.525 154.735L185.007 151.453C185.007 151.453 150.142 160.443 144.934 187.15C139.725 213.858 158.775 251.435 164.34 269.2C169.905 286.99 175.114 321.807 175.114 321.807C175.114 321.807 167.408 375.342 179.965 391.633C192.523 407.924 269.293 404.642 269.293 404.642L269.221 404.666Z" fill="black"/>
<path d="M209.361 122.129L257.901 149.241L261.635 135.257L213 110C213 110 206.531 113.639 209.361 122.129Z" fill="black"/>
<path d="M273.241 158.137C273.241 158.137 354.768 205.322 397.671 241.091C440.575 276.836 471.564 303.068 471.564 303.068C471.564 303.068 471.088 289.726 469.186 287.824C467.283 285.921 341.901 178.186 274.216 146.722L273.265 158.161L273.241 158.137Z" fill="black"/>
<path d="M236.544 247.321L237.567 230.055C237.567 230.055 233.5 227.273 231.479 223.206C229.457 219.139 228.934 202.396 227.174 195.547C225.39 188.698 236.568 176.259 257.116 175.736C277.688 175.237 292.41 184.107 290.888 191.48C290.888 191.48 294.621 203.585 295.454 207.819C296.31 212.052 292.41 216.285 292.077 218.64C291.744 220.994 296.143 229.294 295.287 230.317C294.431 231.34 292.077 232.695 292.077 232.695C292.077 232.695 291.744 234.55 292.41 238.95C293.076 243.35 292.909 250.627 290.555 253.481C288.2 256.335 276.856 253.814 276.856 253.814L275.833 271.58L236.544 247.345V247.321Z" fill="black"/>
</svg>
